# xmcd
#
# Track frame offsets: 
#        150
#        14044
#        28417
#        43054
#        55078
#        70121
#        81154
#        96139
#        114672
#        127337
#        141709
#        160013
#        171881
#        188313
#        206108
#        247350
#        256473
#        271117
#        281629
#        296843
#        312572
#        328156
#
# Disc length: 4576 seconds
#
# Revision: 0
# Processed by: cddbd v1.5.2PL0 Copyright (c) Steve Scherf et al.
# Submitted via: ExactAudioCopy v1.2
#
DISCID=6511de16
DTITLE=Marty Stuart - Now That's Country! - The Definitive Collection 
DTITLE=[CD2]
DYEAR=2017
DGENRE=Country
TTITLE0=Honky Tonkin's What I Do Best [with Travis Tritt]
TTITLE1=Sometimes the Pleasure's Worth The Pain
TTITLE2=Draggin' Around These Chains Of Love
TTITLE3=Geraldine
TTITLE4=When It Comes To Loving You
TTITLE5=Till I Found You
TTITLE6=Hummingbyrd
TTITLE7=I Run to You [with Connie Smith]
TTITLE8=Old Mexico
TTITLE9=Little Things
TTITLE10=You Can't Stop Love
TTITLE11=Hillbilly Rock
TTITLE12=Western Girls
TTITLE13=Me And Billy the Kid
TTITLE14=Three Chiefs
TTITLE15=Mr. John Henry, Steel Driving Man [with Earl Scruggs]
TTITLE16=Wounded Knee
TTITLE17=Cry Cry Cry
TTITLE18=Now That's Country
TTITLE19=This One's Gonna Hurt You (For A Long, Long Time) [with Travi
TTITLE19=s Tritt]
TTITLE20=It's Time To Go Home
TTITLE21=Ghost Train Four-Oh-Ten
EXTD=
EXTT0=
EXTT1=
EXTT2=
EXTT3=
EXTT4=
EXTT5=
EXTT6=
EXTT7=
EXTT8=
EXTT9=
EXTT10=
EXTT11=
EXTT12=
EXTT13=
EXTT14=
EXTT15=
EXTT16=
EXTT17=
EXTT18=
EXTT19=
EXTT20=
EXTT21=
PLAYORDER=
